<svg fill="none" height="24" viewBox="0 0 24 24" width="24" xmlns="http://www.w3.org/2000/svg"><path d="m17.9259 17.4539c-.4122.041-.7132.4083-.6722.8205.0409.4122.4082.7131.8204.6722zm-11.9259 1.5183c.41421 0 .75-.3358.75-.75s-.33579-.75-.75-.75zm10.9093-9.59915.6703-.33649zm.0105.00542.1063.74243zm-11.56073 2.16803.74687.0684zm-.01005.0091.00065-.75zm-.01569 5.9166c-1.42673 0-2.58333-1.1566-2.58333-2.5833h-1.5c0 2.2552 1.82817 4.0833 4.08333 4.0833zm.77261-5.8573c.24991-2.72786 2.54507-4.8649 5.33846-4.8649v-1.5c-3.57592 0-6.51221 2.73514-6.8322 6.228zm5.33846-4.8649c2.0962 0 3.9128 1.20291 4.7946 2.95953l1.3406-.67297c-1.1265-2.24393-3.45-3.78656-6.1352-3.78656zm-8.6944 8.1389c0-1.4092 1.1862-2.5845 2.59837-2.5833l.0013-1.5c-2.23174-.0019-4.09967 1.8358-4.09967 4.0833zm14.2761-4.768c2.1771-.31178 4.2239 1.4441 4.2239 3.6569h1.5c0-3.133-2.8628-5.58194-5.9366-5.14175zm4.2239 3.6569c0 1.9152-1.458 3.4909-3.3241 3.6761l.1482 1.4927c2.6257-.2607 4.6759-2.4749 4.6759-5.1688zm-15.25 3.6944h-.66667v1.5h.66667zm10.239-7.76267c.1481.29487.4667.45727.7871.41137l-.2127-1.48485c.3118-.04465.622.11333.7662.40051zm-11.6268 1.76847c.035-.382.35559-.6727.73747-.6724l-.0013 1.5c.39226.0004.72163-.2983.75757-.6907z" fill="#2b3f6c"/><g stroke="#2b3f6c" stroke-linecap="round" stroke-width="1.5"><path d="m9.5 16.5 2.1464-2.1464c.1953-.1953.5119-.1953.7071 0l2.1465 2.1464"/><path d="m12 15v6"/></g></svg>